<?xml version="1.0" standalone="no"?>
<!DOCTYPE svg PUBLIC "-//W3C//DTD SVG 20010904//EN"
 "http://www.w3.org/TR/2001/REC-SVG-20010904/DTD/svg10.dtd">
<svg version="1.0" xmlns="http://www.w3.org/2000/svg"
 width="300.000000pt" height="304.000000pt" viewBox="0 0 300.000000 304.000000"
 preserveAspectRatio="xMidYMid meet">
<g transform="translate(0.000000,304.000000) scale(0.050000,-0.050000)"
fill="#ffffff" stroke="none">
<path d="M3950 5883 c-253 -107 -490 -221 -522 -252 -12 -12 -104 -96 -203
-187 -154 -142 -190 -187 -238 -300 -31 -74 -86 -183 -122 -242 -120 -201
-124 -192 109 -253 264 -70 458 -141 531 -195 36 -26 117 -77 180 -112 137
-77 134 -59 30 -168 -47 -50 -179 -192 -295 -316 -115 -125 -286 -299 -379
-387 -94 -89 -270 -260 -393 -381 -122 -121 -314 -305 -426 -410 -113 -104
-283 -266 -380 -360 -385 -373 -514 -494 -569 -528 -31 -19 -140 -113 -242
-208 -102 -96 -255 -231 -338 -301 -84 -71 -153 -135 -153 -145 0 -9 -52 -52
-115 -95 -63 -44 -168 -127 -232 -184 l-117 -106 7 -155 7 -156 160 -149 c88
-82 174 -163 192 -181 86 -87 418 1 418 111 0 6 56 69 125 139 141 143 365
396 486 547 43 55 106 124 139 154 33 30 128 136 210 236 83 100 258 293 390
429 1294 1337 1568 1613 1685 1702 44 33 100 87 126 120 25 33 90 98 144 145
106 93 116 92 175 -24 17 -33 77 -123 136 -200 58 -78 111 -163 117 -191 7
-27 21 -61 31 -74 11 -13 15 -40 9 -60 -15 -55 72 -295 109 -302 97 -18 520
248 718 452 345 355 386 434 413 795 l12 160 -137 62 c-76 34 -174 74 -218 89
-44 15 -138 71 -209 125 -71 54 -150 107 -175 119 -49 22 -58 44 -26 64 75 46
-260 423 -359 403 -29 -6 -62 -4 -73 3 -56 37 -266 330 -279 388 -8 36 -26 93
-40 126 -14 33 -36 101 -49 150 -65 238 -55 236 -370 103z m150 -49 c0 -4 -18
-44 -40 -89 -22 -46 -40 -93 -40 -104 0 -12 -9 -21 -20 -21 -11 0 -20 -11 -20
-25 0 -14 -21 -51 -46 -82 l-46 -57 -114 62 c-63 34 -132 62 -153 62 -63 0
-67 38 -7 62 31 12 106 46 166 75 209 101 320 141 320 117z m197 -238 c70
-178 68 -186 -40 -206 -95 -18 -99 -7 -72 197 29 212 32 212 112 9z m-185 -31
c-35 -201 -44 -213 -114 -159 -29 22 -26 35 34 129 80 125 97 131 80 30z
m-581 -23 c10 -11 84 -51 164 -91 165 -83 175 -101 70 -121 -89 -18 -465 -44
-465 -32 0 5 21 36 47 70 26 34 62 91 81 127 33 65 68 81 103 47z m936 -284
c76 -107 67 -109 -108 -23 l-149 74 70 13 c120 22 129 19 187 -64z m-435 13
c7 -16 2 -68 -10 -115 -20 -84 -67 -291 -134 -596 -18 -82 -36 -162 -40 -176
-8 -27 -14 -23 -198 93 -154 98 -154 97 -104 180 24 40 107 196 184 347 76
151 153 279 170 283 66 18 122 12 132 -16z m-308 -135 c-32 -47 -83 -139 -112
-203 -119 -262 -176 -297 -258 -158 -31 52 -83 139 -116 193 -117 190 -58 240
320 267 243 17 245 16 166 -99z m522 67 c46 -31 138 -78 204 -104 66 -26 128
-54 138 -62 17 -14 -260 -302 -389 -406 -27 -22 -95 -77 -150 -123 l-102 -83
14 83 c8 45 29 150 48 232 18 83 51 233 73 335 46 206 47 208 164 128z m-1073
-275 c24 -43 53 -88 64 -101 29 -32 85 -171 74 -182 -13 -14 -207 36 -269 68
-29 15 -63 27 -76 27 -54 0 -44 47 36 161 95 135 110 138 171 27z m1599 -23
c184 -170 196 -220 62 -257 -119 -33 -617 -206 -659 -229 -38 -21 -95 -26 -95
-8 0 15 150 161 349 339 85 77 174 160 197 185 53 58 51 58 146 -30z m81 -374
c-33 -49 -124 -150 -417 -458 l-154 -163 -161 170 c-185 196 -181 187 -96 215
36 12 92 31 125 43 33 12 141 49 240 83 99 33 197 70 217 82 51 28 261 94 271
85 4 -4 -7 -29 -25 -57z m287 -56 c243 -315 223 -273 227 -497 l3 -203 -110
14 c-60 8 -179 20 -264 28 -176 15 -191 24 -160 93 13 27 42 124 65 215 23 91
50 174 59 185 9 11 22 65 30 120 25 188 37 191 150 45z m-233 -80 c-7 -36 -24
-87 -37 -115 -14 -27 -45 -131 -70 -230 -58 -226 -42 -213 -246 -197 -213 16
-213 17 -19 212 85 85 200 208 255 274 115 137 134 146 117 56z m486 -27 c22
-56 -13 -55 -73 2 -33 32 -60 65 -60 74 0 26 121 -42 133 -76z m187 -125 c43
-32 111 -86 150 -121 l72 -63 -40 -56 c-83 -117 -92 -116 -180 15 -45 66 -91
125 -102 132 -26 16 -26 150 0 150 11 0 56 -26 100 -57z m-1554 -178 c223
-229 221 -225 126 -284 -37 -23 -129 -107 -205 -186 -75 -80 -168 -167 -205
-193 l-68 -48 13 84 c8 46 31 135 52 198 21 63 44 155 52 204 19 123 87 340
107 340 9 0 66 -52 128 -115z m-286 -165 c-23 -102 -49 -200 -60 -219 -10 -19
-37 -106 -60 -193 -23 -87 -45 -168 -49 -181 -4 -12 -74 42 -155 120 l-148
143 161 171 c89 94 201 213 249 265 111 119 112 118 62 -106z m1778 75 c22
-36 52 -79 64 -97 18 -24 16 -43 -11 -83 -79 -121 -178 58 -119 213 16 43 18
42 66 -33z m-818 -230 c-1 -82 -33 -95 -108 -44 -94 64 -91 79 18 79 72 0 90
-7 90 -35z m473 -29 l164 -22 12 -67 c17 -88 -29 -163 -144 -234 -46 -28 -445
207 -445 262 0 111 20 114 413 61z m-673 -33 c0 -9 32 -34 70 -54 39 -21 70
-52 70 -70 0 -35 -52 -114 -65 -99 -102 121 -154 240 -105 240 17 0 30 -8 30
-17z m1160 -24 c0 -30 -53 -106 -132 -189 -37 -40 -68 -81 -68 -91 0 -11 -13
-19 -30 -19 -63 0 -34 118 53 221 78 93 177 136 177 78z m-875 -144 c25 -14
59 -35 75 -47 17 -13 86 -53 154 -89 l124 -66 -33 -56 c-19 -32 -77 -100 -130
-152 l-97 -95 -87 100 c-48 55 -83 107 -77 116 5 9 -5 33 -24 54 -46 51 -12
260 43 260 4 0 28 -11 52 -25z m-1403 -157 c76 -78 138 -151 138 -163 0 -11
-151 -170 -336 -353 -185 -182 -465 -465 -622 -628 -309 -319 -348 -347 -223
-158 45 67 81 130 81 140 0 17 45 89 248 405 40 62 72 118 72 127 0 8 23 44
50 80 28 36 50 76 50 89 0 13 8 23 18 23 10 0 28 28 39 61 12 34 49 102 83
152 33 49 74 121 89 158 32 77 132 209 158 209 9 0 79 -64 155 -142z m-402
-93 c0 -17 -11 -33 -202 -318 -73 -108 -158 -246 -190 -307 -32 -60 -63 -114
-70 -120 -7 -5 -28 -41 -48 -80 -19 -38 -88 -152 -153 -252 -64 -100 -117
-191 -117 -201 0 -11 -40 -72 -90 -136 -49 -64 -90 -133 -90 -153 0 -82 -85
-39 -245 124 l-159 162 69 63 c384 353 560 525 589 574 19 33 46 59 60 59 14
0 26 10 26 22 0 12 23 41 52 63 59 46 312 285 448 421 87 88 120 110 120 79z
m2275 -22 c29 -18 -7 -58 -89 -100 -69 -36 -71 -28 -12 47 61 76 64 77 101 53z
m-3352 -1701 c-4 -15 -27 -51 -54 -80 -118 -129 -189 -218 -189 -236 0 -11
-22 -30 -49 -42 -27 -12 -95 -88 -151 -168 -146 -209 -548 -652 -556 -613 -3
18 25 98 62 179 38 82 80 181 93 222 13 41 45 106 72 146 27 39 49 81 49 92 0
11 28 76 62 144 34 68 83 178 108 244 25 66 84 200 130 297 l83 177 173 -167
c95 -92 170 -180 167 -195z m-503 156 c0 -21 -129 -288 -158 -328 -9 -11 -27
-51 -42 -90 -15 -38 -61 -139 -102 -224 -41 -84 -81 -174 -88 -200 -8 -25 -43
-104 -79 -176 -36 -71 -95 -209 -131 -305 -77 -206 -60 -202 -288 -70 -100 58
-209 119 -242 136 -97 50 -80 75 382 552 244 251 499 518 568 592 118 126 180
165 180 113z m-688 -533 c-9 -8 -130 -134 -269 -280 -266 -279 -283 -292 -282
-220 0 59 95 158 290 303 87 65 180 140 207 165 26 26 52 47 58 47 6 0 4 -7
-4 -15z m-221 -935 c81 -49 104 -70 74 -70 -65 0 -141 40 -175 93 -40 61 -36
60 101 -23z"/>
</g>
</svg>
