<?xml version="1.0" encoding="utf-8"?>
<svg xmlns="http://www.w3.org/2000/svg" viewBox="0 0 20.982 21" shape-rendering="crispEdges">
  <path stroke="#ffffff" d="M 0 0.506 L 7 0.506 M 9 0.506 L 10 0.506 M 11 0.506 L 12 0.506 M 14 0.506 L 21 0.506 M 0 1.506 L 1 1.506 M 6 1.506 L 7 1.506 M 8 1.506 L 9 1.506 M 10 1.506 L 12 1.506 M 14 1.506 L 15 1.506 M 20 1.506 L 21 1.506 M 0 2.506 L 1 2.506 M 2 2.506 L 5 2.506 M 6 2.506 L 7 2.506 M 10 2.506 L 11 2.506 M 14 2.506 L 15 2.506 M 16 2.506 L 19 2.506 M 20 2.506 L 21 2.506 M 0 3.506 L 1 3.506 M 2 3.506 L 5 3.506 M 6 3.506 L 7 3.506 M 12 3.506 L 13 3.506 M 14 3.506 L 15 3.506 M 16 3.506 L 19 3.506 M 20 3.506 L 21 3.506 M 0 4.506 L 1 4.506 M 2 4.506 L 5 4.506 M 6 4.506 L 7 4.506 M 8 4.506 L 9 4.506 M 10 4.506 L 13 4.506 M 14 4.506 L 15 4.506 M 16 4.506 L 19 4.506 M 20 4.506 L 21 4.506 M 0 5.506 L 1 5.506 M 6 5.506 L 7 5.506 M 11 5.506 L 12 5.506 M 14 5.506 L 15 5.506 M 20 5.506 L 21 5.506 M 0 6.506 L 7 6.506 M 8 6.506 L 9 6.506 M 10 6.506 L 11 6.506 M 12 6.506 L 13 6.506 M 14 6.506 L 21 6.506 M 10 7.506 L 11 7.506 M 0 8.506 L 1 8.506 M 2 8.506 L 3 8.506 M 4 8.506 L 5 8.506 M 6 8.506 L 7 8.506 M 12 8.506 L 13 8.506 M 16 8.506 L 17 8.506 M 19 8.506 L 20 8.506 M 2 9.506 L 6 9.506 M 8 9.506 L 9 9.506 M 11 9.506 L 12 9.506 M 13 9.506 L 14 9.506 M 15 9.506 L 18 9.506 M 19 9.506 L 21 9.506 M 0 10.506 L 1 10.506 M 2 10.506 L 4 10.506 M 5 10.506 L 9 10.506 M 10 10.506 L 12 10.506 M 14 10.506 L 15 10.506 M 16 10.506 L 21 10.506 M 0 11.506 L 1 11.506 M 2 11.506 L 4 11.506 M 10 11.506 L 13 11.506 M 15 11.506 L 17 11.506 M 19 11.506 L 21 11.506 M 2 12.506 L 5 12.506 M 6 12.506 L 10 12.506 M 11 12.506 L 12 12.506 M 14 12.506 L 15 12.506 M 16 12.506 L 17 12.506 M 19 12.506 L 21 12.506 M 8 13.506 L 9 13.506 M 10 13.506 L 12 13.506 M 13 13.506 L 14 13.506 M 17 13.506 L 21 13.506 M 0 14.506 L 7 14.506 M 9 14.506 L 10 14.506 M 12 14.506 L 14 14.506 M 15 14.506 L 18 14.506 M 19 14.506 L 21 14.506 M 0 15.506 L 1 15.506 M 6 15.506 L 7 15.506 M 9 15.506 L 11 15.506 M 19 15.506 L 20 15.506 M 0 16.506 L 1 16.506 M 2 16.506 L 5 16.506 M 6 16.506 L 7 16.506 M 8 16.506 L 9 16.506 M 11 16.506 L 13 16.506 M 16 16.506 L 17 16.506 M 19 16.506 L 20 16.506 M 0 17.506 L 1 17.506 M 2 17.506 L 5 17.506 M 6 17.506 L 7 17.506 M 9 17.506 L 13 17.506 M 14 17.506 L 15 17.506 M 19 17.506 L 20 17.506 M 0 18.506 L 1 18.506 M 2 18.506 L 5 18.506 M 6 18.506 L 7 18.506 M 8 18.506 L 9 18.506 M 10 18.506 L 14 18.506 M 15 18.506 L 19 18.506 M 20 18.506 L 21 18.506 M 0 19.506 L 1 19.506 M 6 19.506 L 7 19.506 M 10 19.506 L 12 19.506 M 15 19.506 L 16 19.506 M 17 19.506 L 18 19.506 M 19 19.506 L 20 19.506 M 0 20.506 L 7 20.506 M 8 20.506 L 13 20.506 M 16 20.506 L 17 20.506 M 19 20.506 L 21 20.506" style="filter: none;"/>
</svg>