<svg xmlns="http://www.w3.org/2000/svg" viewBox="0 0 29 29" shape-rendering="crispEdges"><path stroke="#ffffff" d="M4 4.5h7m2 0h1m1 0h1m2 0h7M4 5.5h1m5 0h1m1 0h1m1 0h2m2 0h1m5 0h1M4 6.5h1m1 0h3m1 0h1m3 0h1m3 0h1m1 0h3m1 0h1M4 7.5h1m1 0h3m1 0h1m5 0h1m1 0h1m1 0h3m1 0h1M4 8.5h1m1 0h3m1 0h1m1 0h1m1 0h3m1 0h1m1 0h3m1 0h1M4 9.5h1m5 0h1m4 0h1m2 0h1m5 0h1M4 10.5h7m1 0h1m1 0h1m1 0h1m1 0h7M14 11.5h1M4 12.5h1m1 0h1m1 0h1m1 0h1m5 0h1m3 0h1m2 0h1M6 13.5h4m2 0h1m2 0h1m1 0h1m1 0h3m1 0h2M4 14.5h1m1 0h2m1 0h4m1 0h2m2 0h1m1 0h5M4 15.5h1m1 0h2m6 0h3m2 0h2m2 0h2M6 16.5h3m1 0h4m1 0h1m2 0h1m1 0h1m2 0h2M12 17.5h1m1 0h2m1 0h1m3 0h4M4 18.5h7m2 0h1m2 0h2m1 0h3m1 0h2M4 19.5h1m5 0h1m2 0h2m8 0h1M4 20.5h1m1 0h3m1 0h1m1 0h1m2 0h2m3 0h1m2 0h1M4 21.5h1m1 0h3m1 0h1m2 0h4m1 0h1m4 0h1M4 22.5h1m1 0h3m1 0h1m1 0h1m1 0h4m1 0h4m1 0h1M4 23.5h1m5 0h1m3 0h2m3 0h1m1 0h1m1 0h1M4 24.5h7m1 0h5m3 0h1m2 0h2"/></svg>
